<svg width="14" height="29" viewBox="0 0 14 29" fill="none" xmlns="http://www.w3.org/2000/svg">
<g clip-path="url(#clip0)">
<path d="M6.26 24.0032V21.5032C4.58 21.3832 3.29333 20.9099 2.4 20.0832C1.52 19.2432 1.04667 18.1432 0.98 16.7832H4.68C4.8 17.8366 5.32667 18.4632 6.26 18.6632V15.7432C4.5 15.4899 3.23333 15.0166 2.46 14.3232C1.68667 13.6166 1.3 12.5766 1.3 11.2032C1.3 9.98989 1.74667 8.98322 2.64 8.18322C3.53333 7.38322 4.74 6.92989 6.26 6.82322V5.04322H7.82V6.84322C10.8333 7.09655 12.4533 8.53656 12.68 11.1632H9.06C8.92667 10.3499 8.51333 9.84989 7.82 9.66322V12.4232C9.48667 12.6632 10.7467 13.1099 11.6 13.7632C12.4533 14.4166 12.88 15.4299 12.88 16.8032C12.88 18.0966 12.4533 19.1766 11.6 20.0432C10.7467 20.9099 9.48667 21.3966 7.82 21.5032V24.0032H6.26ZM9.16 17.2432C9.16 16.8966 9.06667 16.6366 8.88 16.4632C8.69333 16.2766 8.34 16.1232 7.82 16.0032V18.6632C8.71333 18.4766 9.16 18.0032 9.16 17.2432ZM4.9 10.9032C4.9 11.2632 4.99333 11.5432 5.18 11.7432C5.38 11.9299 5.74 12.0766 6.26 12.1832V9.62322C5.35333 9.78322 4.9 10.2099 4.9 10.9032Z" fill="#252B42"/>
</g>
<defs>
<clipPath id="clip0">
<rect width="13" height="28" fill="white" transform="translate(0.5 0.303223)"/>
</clipPath>
</defs>
</svg>
