<svg width="14" height="28.999999999999996" xmlns="http://www.w3.org/2000/svg">
 <defs>
  <clipPath id="clip0">
   <rect id="svg_1" x="0.5" y="0.30322" fill="white" height="28" width="13"/>
  </clipPath>
 </defs>
 <g>
  <title>background</title>
  <rect fill="none" id="canvas_background" height="602" width="802" y="-1" x="-1"/>
 </g>
 <g>
  <title>Layer 1</title>
  <g id="svg_2" clip-path="url(#clip0)">
   <path id="svg_3" fill="#ffffff" d="m6.26,24.0032l0,-2.5c-1.68,-0.12 -2.96667,-0.5933 -3.86,-1.42c-0.88,-0.84 -1.35333,-1.94 -1.42,-3.3l3.7,0c0.12,1.0534 0.64667,1.68 1.58,1.88l0,-2.92c-1.76,-0.2533 -3.02667,-0.7266 -3.8,-1.42c-0.77333,-0.7066 -1.16,-1.7466 -1.16,-3.12c0,-1.21331 0.44667,-2.21998 1.34,-3.01998c0.89333,-0.8 2.1,-1.25333 3.62,-1.36l0,-1.78l1.56,0l0,1.8c3.0133,0.25333 4.6333,1.69334 4.86,4.31998l-3.62,0c-0.13333,-0.8133 -0.54667,-1.31331 -1.24,-1.49998l0,2.75998c1.66667,0.24 2.9267,0.6867 3.78,1.34c0.8533,0.6534 1.28,1.6667 1.28,3.04c0,1.2934 -0.4267,2.3734 -1.28,3.24c-0.8533,0.8667 -2.11333,1.3534 -3.78,1.46l0,2.5l-1.56,0zm2.9,-6.76c0,-0.3466 -0.09333,-0.6066 -0.28,-0.78c-0.18667,-0.1866 -0.54,-0.34 -1.06,-0.46l0,2.66c0.89333,-0.1866 1.34,-0.66 1.34,-1.42zm-4.26,-6.34c0,0.36 0.09333,0.64 0.28,0.84c0.2,0.1867 0.56,0.3334 1.08,0.44l0,-2.55998c-0.90667,0.16 -1.36,0.58668 -1.36,1.27998z"/>
  </g>
 </g>
</svg>