<svg width="796" height="533" viewBox="0 0 796 533" fill="none" xmlns="http://www.w3.org/2000/svg">
<g clip-path="url(#clip0)">
<path d="M483.212 523.303C619.497 523.303 729.978 491.686 729.978 452.684C729.978 413.682 619.497 382.065 483.212 382.065C346.926 382.065 236.445 413.682 236.445 452.684C236.445 491.686 346.926 523.303 483.212 523.303Z" fill="#F5F5F5"/>
<path d="M717.995 177.969C717.995 177.969 674.282 221.753 698.959 286.723C723.636 351.692 656.656 459.739 656.656 459.739C656.656 459.739 657.361 459.633 658.708 459.4C748.489 443.525 793.097 340.675 743.173 264.273C724.637 235.87 709.373 202.545 717.995 177.969Z" fill="#2091F9"/>
<path d="M717.995 177.969C717.995 177.969 693.319 231.64 717.995 275.424C742.672 319.207 722.226 442.084 656.656 459.739" stroke="#535461" stroke-width="2" stroke-miterlimit="10"/>
<path d="M795.843 355.061C795.843 355.061 745.961 347.102 741.414 391.881C736.866 436.661 645.527 442.861 645.527 442.861C645.527 442.861 646.12 443.271 647.241 444.005C722.681 493.608 794.8 475.6 783.935 409.734C779.867 385.25 780.191 360.654 795.843 355.061Z" fill="#2091F9"/>
<path opacity="0.2" d="M795.843 355.061C795.843 355.061 745.961 347.102 741.414 391.881C736.866 436.661 645.527 442.861 645.527 442.861C645.527 442.861 646.12 443.271 647.241 444.005C722.681 493.608 794.8 475.6 783.935 409.734C779.867 385.25 780.191 360.654 795.843 355.061Z" fill="#F5F5F5"/>
<path d="M795.844 355.061C795.844 355.061 757.123 363.577 760.303 398.844C763.483 434.111 702.778 476.37 645.5 442.847" stroke="#535461" stroke-width="2" stroke-miterlimit="10"/>
<path opacity="0.2" d="M225.745 9.35962C220.062 9.16188 214.239 9.35961 208.908 11.3511C194.406 16.7675 187.531 34.4858 189.766 49.8313C192.001 65.1768 201.195 78.5026 210.735 90.7126C220.274 102.923 230.61 114.977 235.841 129.553C238.45 136.834 239.67 144.99 237.019 152.257C232.929 163.464 220.598 169.728 208.76 171.028C196.923 172.327 185.036 169.792 173.156 168.909C168.171 168.556 163.045 168.514 158.35 170.152C153.196 171.939 148.902 175.583 144.954 179.382C129.548 194.282 117.217 214.621 119.212 235.976C121.469 260.184 141.591 279.322 163.63 289.583C170.928 292.987 178.648 295.741 185.071 300.599C201.992 313.41 205.792 337.413 204.107 358.606C202.422 379.798 196.683 401.012 199.877 422.021C203.635 446.456 220.267 468.524 242.701 478.834C262.689 488.015 287.704 487.443 305.451 474.456C314.101 468.1 320.644 459.336 326.334 450.248C334.922 436.536 341.89 421.872 347.098 406.549C349.572 399.268 351.899 391.436 357.673 386.373C361.199 383.259 365.767 381.514 370.287 380.159C383.908 376.077 398.256 374.954 412.004 371.324C425.753 367.694 439.586 360.929 447.059 348.832C457.635 331.665 452.7 309.709 452.749 289.512C452.833 243.497 480.323 202.298 490.469 157.455C493.783 142.794 495.016 126.573 487.613 113.501C482.579 104.582 474.098 98.2265 465.179 93.2832C445.579 82.3796 423.299 77.5281 401.379 72.8037C370.914 66.2502 333.92 65.4028 310.308 44.203C287.648 23.8647 256.647 9.35962 225.745 9.35962Z" fill="#2091F9"/>
<g opacity="0.5">
<path opacity="0.5" d="M336.254 187.468C336.252 176.376 334.518 165.354 331.114 154.799L322.654 128.522C322.654 128.084 322.654 127.653 322.654 127.223C322.915 110.38 309.808 101.976 304.76 102.887C299.592 103.82 285.251 96.6164 285.251 96.6164V96.8141C284.268 95.6804 283.381 94.4662 282.6 93.1843C285.078 91.3768 287.17 89.0915 288.753 86.4626C290.336 83.8337 291.379 80.9143 291.82 77.876C292.26 74.8377 292.09 71.7418 291.32 68.7703C290.549 65.7987 289.192 63.0115 287.331 60.5725C288.881 59.406 290.063 57.8174 290.736 55.9964C291.907 52.6985 291.011 48.9345 289.107 45.9967C288.298 44.7704 287.352 43.6403 286.287 42.6282C284.675 41.0281 282.914 39.5857 281.028 38.3205C276.325 35.0579 271.157 32.2543 265.517 31.2586C264.541 31.0277 263.524 31.0277 262.548 31.2586C261.701 31.601 260.895 32.0368 260.144 32.558C256.281 34.7613 251.472 33.8079 247.016 33.5749C242.56 33.3418 237.146 34.5918 235.735 38.7795C235.298 40.0718 235.327 41.4701 235.03 42.7977C234.325 46.0462 231.822 48.5673 229.891 51.272C227.959 53.9767 226.513 57.6277 228.121 60.5654C228.671 61.5541 229.531 62.4651 229.531 63.595C229.531 64.4071 229.052 65.1345 228.826 65.9113C228.34 67.6768 229.256 69.4422 230.666 70.7204C231.274 71.3766 231.989 71.9236 232.781 72.3376C235.016 73.4816 237.59 73.8347 239.867 74.894C241.004 75.4287 242.047 76.1442 242.955 77.0126C244.068 78.1795 244.938 79.5566 245.514 81.0636C246.09 82.5707 246.361 84.1775 246.311 85.7905L246.784 85.84C246.784 85.9812 246.784 86.1154 246.784 86.2566C247.277 86.3131 247.799 86.3625 248.313 86.3837C249.054 87.5809 249.901 88.7083 250.845 89.7522C250.685 90.3549 250.504 90.9669 250.302 91.5883C248.645 92.7394 235.094 101.779 219.682 99.6036C203.233 97.2802 193.827 169.312 193.827 169.312C193.218 173.431 192.921 177.59 192.939 181.755C192.869 192.347 195.089 206.21 207.463 204.169L214.041 202.001V237.628C214.041 237.628 214.979 247.388 211.693 253.871C208.408 260.354 222.036 258.051 222.036 258.051C222.036 258.051 222.558 258.595 223.517 259.52L223.214 260.375L223.616 260.784C221.823 266.922 219.406 272.859 216.403 278.503L216.791 278.7C216.544 279.173 216.403 279.407 216.403 279.407C216.403 279.407 221.465 281.998 228.431 285.339C234.029 304.293 246.283 348.189 242.25 356.551L242.363 356.791C243.117 358.359 247.333 367.603 246.48 376.07C245.712 383.64 256.175 418.039 260.081 430.531L258.234 430.905L264.812 454.605L263.401 469.943C263.401 469.943 255.413 491.32 274.21 487.139C293.006 482.959 287.838 465.763 287.838 465.763L288.311 430.905C288.311 430.905 286.499 429.895 284.264 428.928C282.727 424.769 279.378 414.938 279.378 408.138C279.378 399.31 273.265 361.197 273.265 361.197V361.12V360.971V360.929L273.23 360.421V360.336C273.23 359.863 273.152 359.213 273.096 358.422V358.38C272.391 348.076 270.276 313.071 271.82 294.823C273.178 293.895 274.59 293.051 276.05 292.294C280.626 303.876 292.421 335.167 291.667 348.295C290.729 364.538 291.434 351.784 291.667 349.708C291.737 349.065 291.787 349.842 291.808 351.586C291.808 351.904 291.808 352.257 291.808 352.631C291.808 353.006 291.808 353.422 291.808 353.853C291.808 354.284 291.808 354.75 291.808 355.265C291.808 355.51 291.808 355.76 291.808 356.014C291.808 356.522 291.808 357.054 291.808 357.61C291.808 357.888 291.808 358.17 291.808 358.457C291.808 359.87 291.808 361.438 291.758 363.069C291.758 363.394 291.758 363.723 291.758 364.057C291.758 365.053 291.758 366.07 291.709 367.101C291.709 368.514 291.653 369.884 291.625 371.303C291.554 374.481 291.462 377.694 291.35 380.702C291.35 381.037 291.338 381.368 291.314 381.698C291.291 382.357 291.265 383.002 291.237 383.633C291.209 384.264 291.18 384.881 291.152 385.483C291.124 386.081 291.093 386.663 291.06 387.228C291.025 387.891 290.983 388.527 290.948 389.134L288.395 388.767L287.853 394.642C286.997 403.971 288.201 413.373 291.378 422.184C292.252 424.599 292.929 426.598 293.077 427.311C293.549 429.634 293.077 446.378 293.077 446.378C293.077 446.378 295.897 468.22 309.06 464.033C314.983 462.147 317.859 456.413 319.234 450.665C320.76 444.001 320.191 437.028 317.605 430.701C315.737 425.997 313.826 419.402 315.173 414.303C317.521 405.475 317.521 392.926 317.521 392.926L316.069 392.722C316.43 392.032 316.758 391.325 317.049 390.603C317.049 390.603 316.576 358.535 320.806 354.354C323.133 352.052 322.922 346.523 322.217 342.003C321.209 335.462 320.973 328.826 321.511 322.23C321.801 318.833 322.217 315.874 322.703 314.822C323.944 312.364 325.185 287.591 319.692 275.671L320.821 275.318L320.644 274.442L320.821 274.386C321.649 276.6 322.59 278.771 323.641 280.89C323.918 281.107 324.237 281.266 324.578 281.356C339.8 278.679 340.414 264.449 339.568 256.681C340.209 256.992 340.562 257.19 340.562 257.19L341.972 236.71C343.417 233.441 343.953 229.267 343.918 224.755C343.981 208.625 336.254 187.468 336.254 187.468ZM319.474 245.679C318.43 236.76 316.985 228.363 316.985 228.363L309.935 203.265V194.127L321.117 235.933L319.474 245.679Z" fill="url(#paint0_linear)"/>
</g>
<path d="M287.774 382.771L287.252 388.513C286.429 397.635 287.596 406.828 290.672 415.454C291.511 417.82 292.166 419.769 292.307 420.468C292.759 422.742 292.307 439.09 292.307 439.09C292.307 439.09 295.029 460.438 307.727 456.349C313.438 454.513 316.187 448.899 317.541 443.285C319.009 436.774 318.458 429.969 315.962 423.78C314.157 419.183 312.31 412.721 313.614 407.756C315.884 399.127 315.884 386.867 315.884 386.867L287.774 382.771Z" fill="#5A5773"/>
<path d="M274.172 284.216C274.172 284.216 291.854 327.364 290.945 343.253C290.035 359.142 290.719 346.657 290.945 344.616C291.347 340.979 290.945 384.163 289.584 389.106C289.584 389.106 308.176 402.728 315.431 384.565C315.431 384.565 314.98 353.232 319.055 349.143C321.297 346.897 321.079 341.488 320.416 337.074C319.438 330.689 319.201 324.213 319.711 317.774C319.986 314.455 320.367 311.531 320.86 310.535C322.221 307.809 323.582 276.928 315.417 268.298L274.172 284.216Z" fill="#605D82"/>
<path opacity="0.1" d="M291.855 389.127C293.216 384.134 293.618 340.979 293.216 344.637C292.99 346.678 292.306 359.171 293.216 343.274C294.125 327.378 276.443 284.237 276.443 284.237L316.003 268.997C315.82 268.764 315.629 268.545 315.439 268.341L274.18 284.237C274.18 284.237 291.862 327.385 290.953 343.274C290.043 359.164 290.727 346.678 290.953 344.637C291.355 341 290.953 384.184 289.592 389.127C289.592 389.127 297.016 394.565 304.313 393.986C297.82 393.499 291.855 389.127 291.855 389.127Z" fill="black"/>
<path d="M258.754 424.098L265.099 447.261L263.739 462.246C263.739 462.246 256.032 483.135 274.166 479.046C292.3 474.957 287.315 458.157 287.315 458.157L287.767 424.098C287.767 424.098 280.512 420.009 277.339 420.468C274.166 420.927 258.754 424.098 258.754 424.098Z" fill="#5A5773"/>
<path d="M227.473 273.319C227.473 273.319 248.328 340.986 243.343 351.431C243.343 351.431 248.328 361.423 247.425 370.498C246.523 379.573 261.935 428.172 261.935 428.172L284.61 424.084C284.61 424.084 279.167 410.461 279.167 401.832C279.167 393.202 273.272 355.929 273.272 355.929C273.272 355.929 268.288 287.803 274.182 280.537L227.473 273.319Z" fill="#605D82"/>
<g opacity="0.1">
<path opacity="0.1" d="M272.421 286.073C268.663 301.496 272.816 358.253 272.816 358.253C272.816 358.253 278.71 395.49 278.71 404.155C278.71 410.744 281.876 420.235 283.378 424.359L284.604 424.14C284.604 424.14 279.162 410.518 279.162 401.888C279.162 393.258 273.267 355.986 273.267 355.986C273.267 355.986 269.474 304.116 272.421 286.073Z" fill="black"/>
<path opacity="0.1" d="M243.344 351.431L243.457 351.664C243.492 351.431 243.527 351.184 243.548 350.958C243.488 351.119 243.42 351.277 243.344 351.431V351.431Z" fill="black"/>
<path opacity="0.1" d="M273.153 282.768C273.359 281.985 273.705 281.245 274.175 280.586L227.473 273.319C227.473 273.319 227.748 274.202 228.22 275.777L273.153 282.768Z" fill="black"/>
</g>
<path d="M336.288 248.793C336.288 248.793 343.092 274.216 322.688 277.86C322.357 277.774 322.047 277.62 321.778 277.408C321.778 277.408 309.99 254.245 319.057 245.164L336.288 248.793Z" fill="#FAC3CA"/>
<path d="M252.861 79.8657C252.861 79.8657 254.222 98.9328 239.261 108.022C224.3 117.11 270.988 142.081 270.988 142.081L295.474 103.022C295.474 103.022 285.054 104.371 278.708 86.2214L252.861 79.8657Z" fill="#FAC3CA"/>
<path opacity="0.1" d="M242.882 109.37C242.882 109.37 266.008 157.511 286.863 112.096L319.056 271.949C319.056 271.949 269.174 287.394 268.729 294.66C268.285 301.927 218.41 276.045 218.41 276.045C218.41 276.045 229.289 256.06 226.575 243.801C223.86 231.541 242.882 109.37 242.882 109.37Z" fill="black"/>
<path d="M242.882 108.459C242.882 108.459 266.008 156.6 286.863 111.185L319.056 271.045C319.056 271.045 269.174 286.49 268.729 293.756C268.285 301.023 218.41 275.134 218.41 275.134C218.41 275.134 229.289 255.149 226.575 242.889C223.86 230.63 242.882 108.459 242.882 108.459Z" fill="#E1E7EF"/>
<path d="M265.56 436.816C265.56 436.816 259.666 423.646 273.266 423.646C286.866 423.646 284.603 435.453 284.603 435.453L265.56 436.816Z" fill="#5A5773"/>
<path d="M296.392 402.75C296.392 402.75 290.949 388.668 304.556 388.216C318.163 387.764 311.36 400.928 311.36 400.928L296.392 402.75Z" fill="#5A5773"/>
<path opacity="0.1" d="M284.828 98.2266C284.828 98.2266 298.654 105.288 303.646 104.356C308.638 103.424 321.78 112.075 320.877 129.334L329.07 155.082C332.347 165.406 334.012 176.175 334.005 187.009V187.009C334.005 187.009 345.794 219.705 339.448 234.239L338.087 254.224C338.087 254.224 327.66 248.32 316.774 250.135L319.516 233.815L307.249 187.482L286.845 137.978L284.828 98.2266Z" fill="black"/>
<path d="M284.828 97.3296C284.828 97.3296 298.654 104.391 303.646 103.459C308.638 102.527 321.78 111.178 320.877 128.437L329.07 154.185C332.347 164.509 334.012 175.278 334.005 186.112V186.112C334.005 186.112 345.794 218.808 339.448 233.342L338.087 253.327C338.087 253.327 327.66 247.423 316.774 249.238L319.495 232.89L307.249 186.571L286.866 137.067L284.828 97.3296Z" fill="#67647E"/>
<path opacity="0.1" d="M307.728 152.511V203.83L314.532 228.356C314.532 228.356 319.065 255.149 317.704 263.327C316.344 271.504 294.579 273.319 288.685 266.504C282.791 259.69 285.963 201.535 285.963 201.535L284.828 116.404L285.738 113.678L307.728 152.511Z" fill="black"/>
<path d="M308.658 150.245V201.563L315.461 226.089C315.461 226.089 319.995 252.882 318.634 261.06C317.273 269.238 295.509 271.052 289.614 264.238C283.72 257.423 286.893 199.268 286.893 199.268L285.758 114.116L308.658 150.245Z" fill="#67647E"/>
<path opacity="0.1" d="M217.27 192.934L231.779 238.13L224.976 257.43C224.976 257.43 257.168 291.49 277.572 275.141C277.572 275.141 279.842 205.652 275.302 189.304C270.761 172.956 249.004 117.979 249.004 117.979L244.498 103.467L220.47 117.089L217.27 192.934Z" fill="black"/>
<path d="M216.133 190.66V235.15C216.133 235.15 217.043 244.69 213.863 251.046C210.683 257.402 223.839 255.135 223.839 255.135C223.839 255.135 256.032 289.194 276.436 272.846C276.436 272.846 278.706 203.357 274.166 187.009C269.625 170.66 247.867 115.684 247.867 115.684L243.334 101.15L219.306 114.773L216.133 190.66Z" fill="#67647E"/>
<path opacity="0.1" d="M251.273 93.248C251.273 93.248 237.447 103.467 221.577 101.193C205.706 98.9187 196.639 169.319 196.639 169.319C196.639 169.319 190.745 205.652 209.788 202.474L251.957 188.393C251.957 188.393 242.89 178.852 244.251 166.593L223.84 174.764L224.756 135.711L251.273 93.248Z" fill="black"/>
<path opacity="0.1" d="M197.541 168.408C197.541 168.408 191.647 204.741 210.69 201.563L252.859 187.482C252.859 187.482 243.792 177.948 245.153 165.682L224.756 173.86L197.541 168.408Z" fill="black"/>
<path d="M244.152 170.47C244.152 170.47 258.303 151.833 268.723 160.781C279.144 169.728 247.889 186.126 247.889 186.126L244.152 170.47Z" fill="#FAC3CA"/>
<path d="M251.273 92.3369C251.273 92.3369 237.447 102.555 221.577 100.282C205.706 98.0076 196.639 168.408 196.639 168.408C196.639 168.408 190.745 204.741 209.788 201.563L251.957 187.482C251.957 187.482 242.89 177.941 244.251 165.682L223.84 173.859L224.756 134.8L247.882 115.733L251.273 92.3369Z" fill="#67647E"/>
<path opacity="0.1" d="M279.159 87.1113L253.312 80.7556C253.312 80.7556 254.658 82.281 253.086 88.2483C257.246 93.0292 262.357 99.3778 269.182 99.3778C274.066 99.387 278.821 97.8085 282.733 94.8794C281.273 92.4225 280.075 89.8189 279.159 87.1113Z" fill="black"/>
<path d="M268.729 98.4739C281.252 98.4739 291.403 88.3058 291.403 75.7628C291.403 63.2198 281.252 53.0518 268.729 53.0518C256.206 53.0518 246.055 63.2198 246.055 75.7628C246.055 88.3058 256.206 98.4739 268.729 98.4739Z" fill="#FAC3CA"/>
<path opacity="0.1" d="M277.325 65.9042C282.585 65.0073 288.367 62.6699 290.129 57.6277C291.257 54.4004 290.397 50.7282 288.557 47.854C286.717 44.9798 284.009 42.7694 281.217 40.7921C276.684 37.6001 271.685 34.8601 266.228 33.8997C265.287 33.6744 264.306 33.6744 263.366 33.8997C262.547 34.2352 261.769 34.6615 261.046 35.1708C257.316 37.3247 252.677 36.3926 248.355 36.1666C244.033 35.9406 238.851 37.1623 237.49 41.2511C237.067 42.5152 237.096 43.8782 236.785 45.1776C236.08 48.3554 233.69 50.8271 231.85 53.4753C230.01 56.1235 228.593 59.7039 230.144 62.5569C230.673 63.5244 231.554 64.4141 231.554 65.5158C231.418 66.2988 231.181 67.0608 230.849 67.7827C230.207 70.1272 232.076 72.493 234.233 73.6087C236.39 74.7245 238.872 75.0705 241.072 76.1086C243.131 77.1263 244.855 78.7148 246.038 80.6853C247.222 82.6558 247.816 84.9254 247.749 87.2241C249.751 87.4571 252.085 87.5772 253.438 86.08C254.045 85.4092 254.341 84.5123 254.891 83.7991C255.596 82.8669 256.696 82.3161 257.598 81.5675C262.343 77.6623 258.973 72.267 261.659 68.0581C263.069 65.8901 265.311 66.5539 267.582 66.5892C270.844 66.6657 274.106 66.4363 277.325 65.9042V65.9042Z" fill="black"/>
<path d="M276.872 65.4523C282.132 64.5555 287.913 62.218 289.676 57.1758C290.804 53.9485 289.944 50.2763 288.104 47.4021C286.264 44.5279 283.556 42.3175 280.764 40.3402C276.231 37.1482 271.232 34.4082 265.775 33.4478C264.834 33.2225 263.853 33.2225 262.912 33.4478C262.094 33.7833 261.316 34.2096 260.593 34.7189C256.863 36.8728 252.224 35.9407 247.902 35.7147C243.58 35.4887 238.398 36.7104 237.037 40.7992C236.614 42.0633 236.642 43.4263 236.332 44.7257C235.627 47.9035 233.237 50.3752 231.397 53.0234C229.557 55.6716 228.14 59.252 229.691 62.105C230.219 63.0725 231.101 63.9622 231.101 65.0639C230.965 65.8469 230.728 66.6089 230.396 67.3308C229.754 69.6753 231.622 72.0411 233.78 73.1568C235.937 74.2726 238.419 74.6186 240.619 75.6567C242.686 76.6734 244.417 78.265 245.605 80.2413C246.793 82.2175 247.387 84.4947 247.317 86.8004C249.319 87.0335 251.653 87.1535 253.007 85.6564C253.613 84.9855 253.909 84.0887 254.459 83.3754C255.164 82.4432 256.264 81.8924 257.166 81.1438C261.911 77.2386 258.541 71.8433 261.227 67.6344C262.637 65.4664 264.88 66.1303 267.15 66.1656C270.406 66.2314 273.661 65.9926 276.872 65.4523Z" fill="#4A4347"/>
<path opacity="0.1" d="M304.32 141.841C304.32 141.841 309.305 167.73 307.042 177.722C305.659 183.535 305.864 189.614 307.634 195.321" fill="black"/>
<path opacity="0.1" d="M223.74 152.737C223.74 152.737 221.569 169.997 225.186 173.626Z" fill="black"/>
<path d="M350.347 365.434C350.627 365.434 350.896 365.323 351.094 365.124C351.293 364.926 351.404 364.656 351.404 364.375C351.404 364.094 351.293 363.825 351.094 363.626C350.896 363.428 350.627 363.316 350.347 363.316C350.066 363.316 349.797 363.428 349.599 363.626C349.4 363.825 349.289 364.094 349.289 364.375C349.289 364.656 349.4 364.926 349.599 365.124C349.797 365.323 350.066 365.434 350.347 365.434Z" fill="black"/>
<g opacity="0.5">
<path opacity="0.5" d="M675.986 242.028V241.442L483.621 93.2834C483.5 93.1934 483.353 93.1448 483.202 93.1448C483.051 93.1448 482.904 93.1934 482.782 93.2834L290.41 241.442V471.095H290.777V471.462H676.36V241.809L675.986 242.028Z" fill="url(#paint1_linear)"/>
</g>
<path d="M669.347 464.69H297.082V242.946L483.214 99.5896L669.347 242.946V464.69Z" fill="white"/>
<path d="M655.949 451.547H310.477V245.764L483.213 112.725L655.949 245.764V451.547Z" fill="#E0E0E0"/>
<path d="M541.816 109.65L331.078 164.986L401.343 433.447L612.082 378.11L541.816 109.65Z" fill="#2091F9"/>
<path d="M593.199 150.435H375.34V427.968H593.199V150.435Z" fill="#F5F5F5"/>
<path opacity="0.05" d="M298.844 243.299L484.976 354.171L298.844 465.043V243.299Z" fill="black"/>
<path d="M297.434 243.299L483.566 354.171L297.434 465.043V243.299Z" fill="white"/>
<path opacity="0.05" d="M668.289 243.299L482.156 354.171L668.289 465.043V243.299Z" fill="black"/>
<path d="M669.699 243.299L483.566 354.171L669.699 465.043V243.299Z" fill="white"/>
<path opacity="0.05" d="M297.434 461.512L483.566 316.037L669.698 461.512H297.434Z" fill="black"/>
<path d="M297.434 465.042L483.566 319.567L669.698 465.042H297.434Z" fill="white"/>
<path d="M335.258 481.885C335.258 481.885 325.909 450.107 337.014 426.704C341.732 416.921 343.154 405.869 341.068 395.208C340.038 390.155 338.549 385.207 336.619 380.427" stroke="#535461" stroke-width="2" stroke-miterlimit="10"/>
<path d="M343.523 365.639C343.523 369.537 336.472 380.829 336.472 380.829C336.472 380.829 329.422 369.53 329.422 365.639C329.422 363.766 330.165 361.97 331.487 360.646C332.809 359.321 334.602 358.577 336.472 358.577C338.342 358.577 340.136 359.321 341.458 360.646C342.78 361.97 343.523 363.766 343.523 365.639Z" fill="#6C63FF"/>
<path d="M355.192 387.221C353.077 390.49 341.035 396.14 341.035 396.14C341.035 396.14 341.254 382.821 343.369 379.551C344.423 378.073 346.006 377.058 347.789 376.718C349.571 376.379 351.416 376.74 352.939 377.728C354.462 378.716 355.546 380.254 355.965 382.022C356.385 383.79 356.108 385.652 355.192 387.221Z" fill="#6C63FF"/>
<path d="M354.654 424.091C351.178 425.842 337.938 424.634 337.938 424.634C337.938 424.634 344.84 413.251 348.309 411.499C349.139 411.034 350.055 410.742 351 410.64C351.946 410.539 352.903 410.63 353.813 410.909C354.722 411.188 355.567 411.648 356.294 412.262C357.022 412.876 357.617 413.631 358.046 414.481C358.474 415.332 358.727 416.261 358.787 417.212C358.848 418.163 358.716 419.116 358.399 420.015C358.082 420.913 357.587 421.738 356.943 422.44C356.3 423.141 355.521 423.705 354.654 424.098V424.091Z" fill="#6C63FF"/>
<path d="M347.999 451.907C344.868 454.224 331.613 455.269 331.613 455.269C331.613 455.269 336.492 442.882 339.623 440.566C341.129 439.56 342.964 439.172 344.748 439.484C346.531 439.796 348.127 440.783 349.204 442.241C350.281 443.699 350.756 445.516 350.532 447.316C350.307 449.115 349.4 450.759 347.999 451.907V451.907Z" fill="#6C63FF"/>
<path d="M326.222 396.888C329.042 399.6 342.008 402.418 342.008 402.418C342.008 402.418 338.828 389.487 336.036 386.776C334.678 385.573 332.91 384.941 331.099 385.01C329.288 385.079 327.573 385.844 326.31 387.146C325.047 388.448 324.333 390.188 324.317 392.003C324.3 393.818 324.983 395.57 326.222 396.895V396.888Z" fill="#6C63FF"/>
<path d="M318.846 429.521C322.322 431.273 335.563 430.065 335.563 430.065C335.563 430.065 328.661 418.681 325.192 416.93C323.535 416.18 321.654 416.1 319.94 416.707C318.226 417.313 316.813 418.559 315.994 420.185C315.175 421.81 315.015 423.689 315.546 425.43C316.078 427.171 317.26 428.639 318.846 429.528V429.521Z" fill="#6C63FF"/>
<path d="M316.024 462.218C319.155 464.534 332.41 465.579 332.41 465.579C332.41 465.579 327.531 453.193 324.4 450.876C323.661 450.271 322.807 449.823 321.89 449.558C320.972 449.293 320.011 449.217 319.064 449.336C318.116 449.454 317.203 449.764 316.379 450.247C315.554 450.73 314.837 451.375 314.269 452.144C313.701 452.912 313.295 453.789 313.076 454.719C312.856 455.65 312.828 456.615 312.992 457.557C313.156 458.499 313.509 459.398 314.031 460.199C314.552 461 315.23 461.687 316.024 462.218V462.218Z" fill="#6C63FF"/>
<path opacity="0.5" d="M475.457 163.147H388.031V170.209H475.457V163.147Z" fill="#6C63FF"/>
<path opacity="0.5" d="M576.984 191.394H388.031V198.456H576.984V191.394Z" fill="#6C63FF"/>
<path opacity="0.5" d="M576.984 209.755H388.031V216.817H576.984V209.755Z" fill="#6C63FF"/>
<path opacity="0.4" d="M576.984 228.116H388.031V235.178H576.984V228.116Z" fill="#6C63FF"/>
<path opacity="0.4" d="M576.984 246.477H388.031V253.539H576.984V246.477Z" fill="#6C63FF"/>
<path opacity="0.3" d="M495.903 264.838H388.031V271.9H495.903V264.838Z" fill="#6C63FF"/>
<path opacity="0.3" d="M535.386 283.199H388.031V290.261H535.386V283.199Z" fill="#6C63FF"/>
</g>
<defs>
<linearGradient id="paint0_linear" x1="192.946" y1="259.421" x2="343.84" y2="259.421" gradientUnits="userSpaceOnUse">
<stop stop-color="#808080" stop-opacity="0.25"/>
<stop offset="0.54" stop-color="#808080" stop-opacity="0.12"/>
<stop offset="1" stop-color="#808080" stop-opacity="0.1"/>
</linearGradient>
<linearGradient id="paint1_linear" x1="246075" y1="280256" x2="246075" y2="77572.5" gradientUnits="userSpaceOnUse">
<stop stop-color="#808080" stop-opacity="0.25"/>
<stop offset="0.54" stop-color="#808080" stop-opacity="0.12"/>
<stop offset="1" stop-color="#808080" stop-opacity="0.1"/>
</linearGradient>
<clipPath id="clip0">
<rect width="677" height="514" fill="white" transform="translate(119 9.30322)"/>
</clipPath>
</defs>
</svg>
