<svg width="42" height="42" viewBox="0 0 42 42" fill="none" xmlns="http://www.w3.org/2000/svg">
<path d="M35.7126 4.78564H6.25349C5.54503 4.78564 4.97266 5.35802 4.97266 6.06648V35.5256C4.97266 36.2341 5.54503 36.8064 6.25349 36.8064H35.7126C36.4211 36.8064 36.9934 36.2341 36.9934 35.5256V6.06648C36.9934 5.35802 36.4211 4.78564 35.7126 4.78564ZM32.0142 14.1317H29.4565C27.4512 14.1317 27.063 15.0843 27.063 16.4852V19.5712H31.8501L31.2257 24.4024H27.063V36.8064H22.0718V24.4064H17.897V19.5712H22.0718V16.0089C22.0718 11.8742 24.5974 9.62078 28.2878 9.62078C30.0569 9.62078 31.5739 9.75287 32.0182 9.81291V14.1317H32.0142Z" fill="white"/>
</svg>
