<svg width="42" height="42" viewBox="0 0 42 42" fill="none" xmlns="http://www.w3.org/2000/svg">
<path d="M35.697 4.78564H6.23786C5.5294 4.78564 4.95703 5.35802 4.95703 6.06648V35.5256C4.95703 36.2341 5.5294 36.8064 6.23786 36.8064H35.697C36.4054 36.8064 36.9778 36.2341 36.9778 35.5256V6.06648C36.9778 5.35802 36.4054 4.78564 35.697 4.78564ZM14.4552 32.0714H9.70411V16.7894H14.4552V32.0714ZM12.0817 14.7001C11.537 14.7001 11.0046 14.5386 10.5517 14.236C10.0989 13.9334 9.74591 13.5033 9.53749 13.0001C9.32906 12.4969 9.27453 11.9432 9.38078 11.4091C9.48704 10.8749 9.74931 10.3842 10.1344 9.99907C10.5196 9.61395 11.0102 9.35167 11.5444 9.24542C12.0786 9.13916 12.6323 9.1937 13.1355 9.40212C13.6387 9.61055 14.0688 9.96351 14.3713 10.4164C14.6739 10.8692 14.8354 11.4016 14.8354 11.9463C14.8314 13.4673 13.5986 14.7001 12.0817 14.7001ZM32.2427 32.0714H27.4957V24.6385C27.4957 22.8654 27.4636 20.5879 25.0261 20.5879C22.5565 20.5879 22.1762 22.5171 22.1762 24.5104V32.0714H17.4331V16.7894H21.9881V18.8788H22.0521C22.6845 17.678 24.2335 16.4092 26.547 16.4092C31.3582 16.4092 32.2427 19.5752 32.2427 23.6899V32.0714Z" fill="white"/>
</svg>
