<svg width="42" height="42" viewBox="0 0 42 42" fill="none" xmlns="http://www.w3.org/2000/svg">
<path d="M37.6455 10.4812C36.4207 11.0095 35.0878 11.3898 33.7149 11.5379C35.1403 10.6911 36.2077 9.35326 36.7168 7.77544C35.3793 8.57111 33.914 9.12905 32.386 9.42451C31.7474 8.74177 30.975 8.19787 30.117 7.8267C29.2589 7.45553 28.3337 7.26504 27.3988 7.26711C23.6163 7.26711 20.5744 10.3331 20.5744 14.0955C20.5744 14.6239 20.6384 15.1522 20.7425 15.6606C15.0788 15.3644 10.0275 12.6586 6.66936 8.51592C6.05746 9.56106 5.7368 10.7511 5.74075 11.9622C5.74075 14.3317 6.94553 16.421 8.78273 17.6498C7.70004 17.6072 6.64271 17.3096 5.69672 16.7813V16.8653C5.69672 20.1835 8.04225 22.9333 11.1683 23.5657C10.5813 23.7181 9.97753 23.7961 9.37111 23.7978C8.92682 23.7978 8.50655 23.7538 8.08227 23.6938C8.94683 26.3995 11.4645 28.3648 14.4624 28.4288C12.1169 30.266 9.17898 31.3467 5.98891 31.3467C5.41654 31.3467 4.8882 31.3267 4.33984 31.2627C7.36581 33.2039 10.9561 34.3247 14.8226 34.3247C27.3748 34.3247 34.2432 23.9259 34.2432 14.9001C34.2432 14.6039 34.2432 14.3077 34.2232 14.0115C35.5521 13.0389 36.7168 11.8341 37.6455 10.4812Z" fill="white"/>
</svg>
