<svg width="47" height="47" viewBox="0 0 47 47" fill="none" xmlns="http://www.w3.org/2000/svg">
<path d="M23.4987 27.1361C27.7269 27.1361 31.1654 23.6976 31.1654 19.4694C31.1654 15.2412 27.7269 11.8027 23.4987 11.8027C19.2705 11.8027 15.832 15.2412 15.832 19.4694C15.832 23.6976 19.2705 27.1361 23.4987 27.1361ZM23.4987 15.6361C25.6128 15.6361 27.332 17.3553 27.332 19.4694C27.332 21.5835 25.6128 23.3027 23.4987 23.3027C21.3846 23.3027 19.6654 21.5835 19.6654 19.4694C19.6654 17.3553 21.3846 15.6361 23.4987 15.6361Z" fill="white"/>
<path d="M22.3898 42.1131C22.7142 42.3447 23.1029 42.4693 23.5015 42.4693C23.9001 42.4693 24.2887 42.3447 24.6131 42.1131C25.1958 41.701 38.8904 31.8129 38.8348 19.4696C38.8348 11.0151 31.9559 4.13623 23.5015 4.13623C15.0471 4.13623 8.16814 11.0151 8.16814 19.46C8.11255 31.8129 21.8071 41.701 22.3898 42.1131ZM23.5015 7.96956C29.8437 7.96956 35.0015 13.1273 35.0015 19.4791C35.0417 27.9853 26.5911 35.6232 23.5015 38.1283C20.4137 35.6213 11.9612 27.9815 12.0015 19.4696C12.0015 13.1273 17.1592 7.96956 23.5015 7.96956Z" fill="white"/>
</svg>
